<?xml version="1.0" encoding="UTF-8"?>
<!DOCTYPE svg PUBLIC "-//W3C//DTD SVG 1.1//EN"
    "http://www.w3.org/Graphics/SVG/1.1/DTD/svg11.dtd"><svg xmlns="http://www.w3.org/2000/svg" height="750.0000" stroke-opacity="1" viewBox="0 0 500 750" font-size="1" width="500.0000" xmlns:xlink="http://www.w3.org/1999/xlink" stroke="rgb(0,0,0)" version="1.1"><defs></defs><g stroke-linejoin="miter" stroke-opacity="1.0" fill-opacity="0.0" stroke="rgb(0,0,0)" stroke-width="2.449489742783178" fill="rgb(0,0,0)" stroke-linecap="butt" stroke-miterlimit="10.0"><path d="M 136.3636,71.9697 l 75.7576,151.5152 "/></g><g stroke-linejoin="miter" stroke-opacity="1.0" fill-opacity="0.0" stroke="rgb(0,0,0)" stroke-width="2.449489742783178" fill="rgb(0,0,0)" stroke-linecap="butt" stroke-miterlimit="10.0"><path d="M 136.3636,71.9697 l -75.7576,151.5152 "/></g><g stroke-linejoin="miter" stroke-opacity="1.0" fill-opacity="0.0" stroke="rgb(0,0,0)" stroke-width="2.449489742783178" fill="rgb(0,0,0)" stroke-linecap="butt" stroke-miterlimit="10.0"><path d="M 212.1212,223.4848 l 75.7576,151.5152 "/></g><g stroke-linejoin="miter" stroke-opacity="1.0" fill-opacity="0.0" stroke="rgb(0,0,0)" stroke-width="2.449489742783178" fill="rgb(0,0,0)" stroke-linecap="butt" stroke-miterlimit="10.0"><path d="M 212.1212,223.4848 l -75.7576,151.5152 "/></g><g stroke-linejoin="miter" stroke-opacity="1.0" fill-opacity="0.0" stroke="rgb(0,0,0)" stroke-width="2.449489742783178" fill="rgb(0,0,0)" stroke-linecap="butt" stroke-miterlimit="10.0"><path d="M 287.8788,375.0000 l 75.7576,151.5152 "/></g><g stroke-linejoin="miter" stroke-opacity="1.0" fill-opacity="0.0" stroke="rgb(0,0,0)" stroke-width="2.449489742783178" fill="rgb(0,0,0)" stroke-linecap="butt" stroke-miterlimit="10.0"><path d="M 287.8788,375.0000 l -75.7576,151.5152 "/></g><g stroke-linejoin="miter" stroke-opacity="1.0" fill-opacity="0.0" stroke="rgb(0,0,0)" stroke-width="2.449489742783178" fill="rgb(0,0,0)" stroke-linecap="butt" stroke-miterlimit="10.0"><path d="M 363.6364,526.5152 l 75.7576,151.5152 "/></g><g stroke-linejoin="miter" stroke-opacity="1.0" fill-opacity="0.0" stroke="rgb(0,0,0)" stroke-width="2.449489742783178" fill="rgb(0,0,0)" stroke-linecap="butt" stroke-miterlimit="10.0"><path d="M 363.6364,526.5152 l -75.7576,151.5152 "/></g><g stroke-linejoin="miter" stroke-opacity="1.0" fill-opacity="1.0" stroke="rgb(0,0,0)" stroke-width="2.449489742783178" fill="rgb(255,255,255)" stroke-linecap="butt" stroke-miterlimit="10.0"><path d="M 477.2727,678.0303 c 0.0000,-20.9199 -16.9589,-37.8788 -37.8788 -37.8788c -20.9199,-0.0000 -37.8788,16.9589 -37.8788 37.8788c -0.0000,20.9199 16.9589,37.8788 37.8788 37.8788c 20.9199,0.0000 37.8788,-16.9589 37.8788 -37.8788Z"/></g><g stroke-linejoin="miter" stroke-opacity="1.0" fill-opacity="1.0" font-size="37.878787878787875px" stroke="rgb(0,0,0)" stroke-width="2.449489742783178" fill="rgb(0,0,0)" stroke-linecap="butt" stroke-miterlimit="10.0"><text dominant-baseline="middle" transform="matrix(1.0000,0.0000,0.0000,1.0000,439.3939,678.0303)" stroke="none" text-anchor="middle">z</text></g><g stroke-linejoin="miter" stroke-opacity="1.0" fill-opacity="1.0" stroke="rgb(0,0,0)" stroke-width="2.449489742783178" fill="rgb(255,255,255)" stroke-linecap="butt" stroke-miterlimit="10.0"><path d="M 325.7576,678.0303 c 0.0000,-20.9199 -16.9589,-37.8788 -37.8788 -37.8788c -20.9199,-0.0000 -37.8788,16.9589 -37.8788 37.8788c -0.0000,20.9199 16.9589,37.8788 37.8788 37.8788c 20.9199,0.0000 37.8788,-16.9589 37.8788 -37.8788Z"/></g><g stroke-linejoin="miter" stroke-opacity="1.0" fill-opacity="1.0" font-size="37.878787878787875px" stroke="rgb(0,0,0)" stroke-width="2.449489742783178" fill="rgb(0,0,0)" stroke-linecap="butt" stroke-miterlimit="10.0"><text dominant-baseline="middle" transform="matrix(1.0000,0.0000,0.0000,1.0000,287.8788,678.0303)" stroke="none" text-anchor="middle">x4</text></g><g stroke-linejoin="miter" stroke-opacity="1.0" fill-opacity="1.0" stroke="rgb(0,0,0)" stroke-width="2.449489742783178" fill="rgb(255,255,255)" stroke-linecap="butt" stroke-miterlimit="10.0"><path d="M 401.5152,526.5152 c 0.0000,-20.9199 -16.9589,-37.8788 -37.8788 -37.8788c -20.9199,-0.0000 -37.8788,16.9589 -37.8788 37.8788c -0.0000,20.9199 16.9589,37.8788 37.8788 37.8788c 20.9199,0.0000 37.8788,-16.9589 37.8788 -37.8788Z"/></g><g stroke-linejoin="miter" stroke-opacity="1.0" fill-opacity="1.0" font-size="37.878787878787875px" stroke="rgb(0,0,0)" stroke-width="2.449489742783178" fill="rgb(0,0,0)" stroke-linecap="butt" stroke-miterlimit="10.0"><text dominant-baseline="middle" transform="matrix(1.0000,0.0000,0.0000,1.0000,363.6364,526.5152)" stroke="none" text-anchor="middle">+</text></g><g stroke-linejoin="miter" stroke-opacity="1.0" fill-opacity="1.0" stroke="rgb(0,0,0)" stroke-width="2.449489742783178" fill="rgb(255,255,255)" stroke-linecap="butt" stroke-miterlimit="10.0"><path d="M 250.0000,526.5152 c 0.0000,-20.9199 -16.9589,-37.8788 -37.8788 -37.8788c -20.9199,-0.0000 -37.8788,16.9589 -37.8788 37.8788c -0.0000,20.9199 16.9589,37.8788 37.8788 37.8788c 20.9199,0.0000 37.8788,-16.9589 37.8788 -37.8788Z"/></g><g stroke-linejoin="miter" stroke-opacity="1.0" fill-opacity="1.0" font-size="37.878787878787875px" stroke="rgb(0,0,0)" stroke-width="2.449489742783178" fill="rgb(0,0,0)" stroke-linecap="butt" stroke-miterlimit="10.0"><text dominant-baseline="middle" transform="matrix(1.0000,0.0000,0.0000,1.0000,212.1212,526.5152)" stroke="none" text-anchor="middle">x3</text></g><g stroke-linejoin="miter" stroke-opacity="1.0" fill-opacity="1.0" stroke="rgb(0,0,0)" stroke-width="2.449489742783178" fill="rgb(255,255,255)" stroke-linecap="butt" stroke-miterlimit="10.0"><path d="M 325.7576,375.0000 c 0.0000,-20.9199 -16.9589,-37.8788 -37.8788 -37.8788c -20.9199,-0.0000 -37.8788,16.9589 -37.8788 37.8788c -0.0000,20.9199 16.9589,37.8788 37.8788 37.8788c 20.9199,0.0000 37.8788,-16.9589 37.8788 -37.8788Z"/></g><g stroke-linejoin="miter" stroke-opacity="1.0" fill-opacity="1.0" font-size="37.878787878787875px" stroke="rgb(0,0,0)" stroke-width="2.449489742783178" fill="rgb(0,0,0)" stroke-linecap="butt" stroke-miterlimit="10.0"><text dominant-baseline="middle" transform="matrix(1.0000,0.0000,0.0000,1.0000,287.8788,375.0000)" stroke="none" text-anchor="middle">+</text></g><g stroke-linejoin="miter" stroke-opacity="1.0" fill-opacity="1.0" stroke="rgb(0,0,0)" stroke-width="2.449489742783178" fill="rgb(255,255,255)" stroke-linecap="butt" stroke-miterlimit="10.0"><path d="M 174.2424,375.0000 c 0.0000,-20.9199 -16.9589,-37.8788 -37.8788 -37.8788c -20.9199,-0.0000 -37.8788,16.9589 -37.8788 37.8788c -0.0000,20.9199 16.9589,37.8788 37.8788 37.8788c 20.9199,0.0000 37.8788,-16.9589 37.8788 -37.8788Z"/></g><g stroke-linejoin="miter" stroke-opacity="1.0" fill-opacity="1.0" font-size="37.878787878787875px" stroke="rgb(0,0,0)" stroke-width="2.449489742783178" fill="rgb(0,0,0)" stroke-linecap="butt" stroke-miterlimit="10.0"><text dominant-baseline="middle" transform="matrix(1.0000,0.0000,0.0000,1.0000,136.3636,375.0000)" stroke="none" text-anchor="middle">x2</text></g><g stroke-linejoin="miter" stroke-opacity="1.0" fill-opacity="1.0" stroke="rgb(0,0,0)" stroke-width="2.449489742783178" fill="rgb(255,255,255)" stroke-linecap="butt" stroke-miterlimit="10.0"><path d="M 250.0000,223.4848 c 0.0000,-20.9199 -16.9589,-37.8788 -37.8788 -37.8788c -20.9199,-0.0000 -37.8788,16.9589 -37.8788 37.8788c -0.0000,20.9199 16.9589,37.8788 37.8788 37.8788c 20.9199,0.0000 37.8788,-16.9589 37.8788 -37.8788Z"/></g><g stroke-linejoin="miter" stroke-opacity="1.0" fill-opacity="1.0" font-size="37.878787878787875px" stroke="rgb(0,0,0)" stroke-width="2.449489742783178" fill="rgb(0,0,0)" stroke-linecap="butt" stroke-miterlimit="10.0"><text dominant-baseline="middle" transform="matrix(1.0000,0.0000,0.0000,1.0000,212.1212,223.4848)" stroke="none" text-anchor="middle">+</text></g><g stroke-linejoin="miter" stroke-opacity="1.0" fill-opacity="1.0" stroke="rgb(0,0,0)" stroke-width="2.449489742783178" fill="rgb(255,255,255)" stroke-linecap="butt" stroke-miterlimit="10.0"><path d="M 98.4848,223.4848 c 0.0000,-20.9199 -16.9589,-37.8788 -37.8788 -37.8788c -20.9199,-0.0000 -37.8788,16.9589 -37.8788 37.8788c -0.0000,20.9199 16.9589,37.8788 37.8788 37.8788c 20.9199,0.0000 37.8788,-16.9589 37.8788 -37.8788Z"/></g><g stroke-linejoin="miter" stroke-opacity="1.0" fill-opacity="1.0" font-size="37.878787878787875px" stroke="rgb(0,0,0)" stroke-width="2.449489742783178" fill="rgb(0,0,0)" stroke-linecap="butt" stroke-miterlimit="10.0"><text dominant-baseline="middle" transform="matrix(1.0000,0.0000,0.0000,1.0000,60.6061,223.4848)" stroke="none" text-anchor="middle">x1</text></g><g stroke-linejoin="miter" stroke-opacity="1.0" fill-opacity="1.0" stroke="rgb(0,0,0)" stroke-width="2.449489742783178" fill="rgb(255,255,255)" stroke-linecap="butt" stroke-miterlimit="10.0"><path d="M 174.2424,71.9697 c 0.0000,-20.9199 -16.9589,-37.8788 -37.8788 -37.8788c -20.9199,-0.0000 -37.8788,16.9589 -37.8788 37.8788c -0.0000,20.9199 16.9589,37.8788 37.8788 37.8788c 20.9199,0.0000 37.8788,-16.9589 37.8788 -37.8788Z"/></g><g stroke-linejoin="miter" stroke-opacity="1.0" fill-opacity="1.0" font-size="37.878787878787875px" stroke="rgb(0,0,0)" stroke-width="2.449489742783178" fill="rgb(0,0,0)" stroke-linecap="butt" stroke-miterlimit="10.0"><text dominant-baseline="middle" transform="matrix(1.0000,0.0000,0.0000,1.0000,136.3636,71.9697)" stroke="none" text-anchor="middle">+</text></g></svg>